HIERARCHY
ROOT Hips
{
	OFFSET 0.00000 0.00000 0.00000
	CHANNELS 6 Xposition Yposition Zposition Zrotation Yrotation Xrotation 
	JOINT LHipJoint
	{
		OFFSET 0 0 0
		CHANNELS 3 Zrotation Yrotation Xrotation
		JOINT LeftUpLeg
		{
			OFFSET 1.65412 -1.54119 0.76744
			CHANNELS 3 Zrotation Yrotation Xrotation
			JOINT LeftLeg
			{
				OFFSET 2.19550 -6.03209 0.00000
				CHANNELS 3 Zrotation Yrotation Xrotation
				JOINT LeftFoot
				{
					OFFSET 2.38814 -6.56138 0.00000
					CHANNELS 3 Zrotation Yrotation Xrotation
					JOINT LeftToeBase
					{
						OFFSET 0.17337 -0.47632 1.75875
						CHANNELS 3 Zrotation Yrotation Xrotation
						End Site
						{
							OFFSET 0.00000 -0.00000 0.92050
						}
					}
				}
			}
		}
	}
	JOINT RHipJoint
	{
		OFFSET 0 0 0
		CHANNELS 3 Zrotation Yrotation Xrotation
		JOINT RightUpLeg
		{
			OFFSET -1.40291 -1.54119 0.76744
			CHANNELS 3 Zrotation Yrotation Xrotation
			JOINT RightLeg
			{
				OFFSET -2.22156 -6.10370 0.00000
				CHANNELS 3 Zrotation Yrotation Xrotation
				JOINT RightFoot
				{
					OFFSET -2.46840 -6.78188 0.00000
					CHANNELS 3 Zrotation Yrotation Xrotation
					JOINT RightToeBase
					{
						OFFSET -0.15659 -0.43024 1.84117
						CHANNELS 3 Zrotation Yrotation Xrotation
						End Site
						{
							OFFSET -0.00000 -0.00000 0.95587
						}
					}
				}
			}
		}
	}
	JOINT LowerBack
	{
		OFFSET 0 0 0
		CHANNELS 3 Zrotation Yrotation Xrotation
		JOINT Spine
		{
			OFFSET -0.01936 1.82120 -0.32061
			CHANNELS 3 Zrotation Yrotation Xrotation
			JOINT Spine1
			{
				OFFSET -0.00532 1.85767 -0.00071
				CHANNELS 3 Zrotation Yrotation Xrotation
				JOINT Neck
				{
					OFFSET 0 0 0
					CHANNELS 3 Zrotation Yrotation Xrotation
					JOINT Neck1
					{
						OFFSET -0.10687 1.58194 0.10810
						CHANNELS 3 Zrotation Yrotation Xrotation
						JOINT Head
						{
							OFFSET 0.15346 1.57382 -0.25612
							CHANNELS 3 Zrotation Yrotation Xrotation
							End Site
							{
								OFFSET 0.05334 1.61251 -0.10513
							}
						}
					}
				}
				JOINT LeftShoulder
				{
					OFFSET 0 0 0
					CHANNELS 3 Zrotation Yrotation Xrotation
					JOINT LeftArm
					{
						OFFSET 2.85758 0.89498 -0.01485
						CHANNELS 3 Zrotation Yrotation Xrotation
						JOINT LeftForeArm
						{
							OFFSET 4.79185 -0.00000 -0.00000
							CHANNELS 3 Zrotation Yrotation Xrotation
							JOINT LeftHand
							{
								OFFSET 2.65553 -0.00000 0.00000
								CHANNELS 3 Zrotation Yrotation Xrotation
								JOINT LeftFingerBase
								{
									OFFSET 0 0 0
									CHANNELS 3 Zrotation Yrotation Xrotation
									JOINT LeftHandIndex1
									{
										OFFSET 0.74390 -0.00000 0.00000
										CHANNELS 3 Zrotation Yrotation Xrotation
										End Site
										{
											OFFSET 0.59975 -0.00000 0.00000
										}
									}
								}
								JOINT LThumb
								{
									OFFSET 0 0 0
									CHANNELS 3 Zrotation Yrotation Xrotation
									End Site
									{
										OFFSET 0.60891 -0.00000 0.60891
									}
								}
							}
						}
					}
				}
				JOINT RightShoulder
				{
					OFFSET 0 0 0
					CHANNELS 3 Zrotation Yrotation Xrotation
					JOINT RightArm
					{
						OFFSET -2.93906 0.88031 0.02490
						CHANNELS 3 Zrotation Yrotation Xrotation
						JOINT RightForeArm
						{
							OFFSET -4.77254 -0.00000 -0.00000
							CHANNELS 3 Zrotation Yrotation Xrotation
							JOINT RightHand
							{
								OFFSET -2.75995 -0.00000 -0.00000
								CHANNELS 3 Zrotation Yrotation Xrotation
								JOINT RightFingerBase
								{
									OFFSET 0 0 0
									CHANNELS 3 Zrotation Yrotation Xrotation
									JOINT RightHandIndex1
									{
										OFFSET -0.70162 -0.00000 0.00000
										CHANNELS 3 Zrotation Yrotation Xrotation
										End Site
										{
											OFFSET -0.56566 -0.00000 0.00000
										}
									}
								}
								JOINT RThumb
								{
									OFFSET 0 0 0
									CHANNELS 3 Zrotation Yrotation Xrotation
									End Site
									{
										OFFSET -0.57430 -0.00000 0.57430
									}
								}
							}
						}
					}
				}
			}
		}
	}
}
MOTION
Frames: 13
Frame Time: .0083333
0.0478 15.6368 -2.9874 1.5503 30.9608 16.0310 0.0000 0.0000 0.0000 -12.5784 -28.3151 -36.4265 1.8651 8.5792 24.4876 0.0643 -2.7503 6.6066 0.0176 -0.8562 -2.3533 0.0000 0.0000 0.0000 8.8596 10.1516 -36.1829 -4.8801 -13.2475 40.3021 0.4939 -21.2843 -26.2536 -0.2038 -2.9070 8.0201 10.1928 0.8929 28.3987 13.2553 5.7019 7.1612 6.7409 2.7090 -7.6545 -15.6071 -10.2288 1.0401 37.5323 -14.2775 -1.2881 14.7668 -7.1902 3.8967 0.0000 -0.0000 0.0000 79.7330 -41.0722 -78.9287 46.3554 -51.4155 -23.2935 -0.0000 0.0000 -58.1584 20.1738 24.9611 8.8134 -7.1250 0.0000 -0.0000 -10.2277 56.0639 -2.7965 0.0000 -0.0000 0.0000 -85.1096 60.9927 -129.5425 -58.2835 55.8349 -32.9168 0.0000 -0.0000 -63.3639 -34.7290 2.6881 -1.8620 7.1250 -0.0000 -0.0000 -6.1989 -26.6990 -2.7679
0.0789 15.6345 -2.9957 1.7229 30.1880 15.9887 0.0000 0.0000 0.0000 -12.9734 -27.9619 -36.2202 1.8670 8.5833 24.5003 0.0651 -2.5144 6.4208 0.0195 -0.9026 -2.4809 0.0000 0.0000 0.0000 8.4886 10.5152 -36.0182 -4.8582 -13.2223 40.2064 0.5302 -21.2324 -25.8542 -0.1660 -2.6249 7.2362 10.2397 1.0811 28.5385 13.2528 5.9702 7.1431 6.6201 2.8265 -7.7453 -14.9177 -10.1943 3.1770 38.3910 -13.4733 -4.2993 15.2407 -7.2441 2.4654 0.0000 0.0000 0.0000 80.9796 -41.2296 -80.1835 45.8088 -51.1586 -22.8670 -0.0000 0.0000 -57.7859 19.4032 25.3548 8.5772 -7.1250 0.0000 -0.0000 -11.2196 56.3018 -3.1373 0.0000 0.0000 0.0000 -83.6973 60.9908 -128.4530 -58.0872 55.7783 -32.7544 0.0000 -0.0000 -63.3016 -34.8758 2.6860 -1.8707 7.1250 -0.0000 -0.0000 -6.3103 -26.6953 -2.8187
0.1132 15.6369 -3.0037 1.7835 29.4763 15.9407 0.0000 0.0000 0.0000 -13.2056 -27.6998 -36.0834 1.8731 8.5965 24.5412 0.0661 -2.2284 6.2083 0.0194 -0.9002 -2.4742 0.0000 0.0000 0.0000 8.2025 10.8741 -35.8808 -4.8296 -13.1892 40.0811 0.5260 -21.0906 -25.6543 -0.1616 -2.5902 7.1399 10.4848 1.3081 28.5868 13.2477 6.3269 7.1217 6.3668 2.9841 -7.7770 -14.4840 -11.1524 0.1055 37.3948 -15.5843 -1.0423 14.1931 -7.7072 4.4139 -0.0000 -0.0000 0.0000 82.3890 -41.3691 -81.5968 45.4028 -50.9643 -22.5512 -0.0000 0.0000 -57.4299 18.8502 25.4259 8.3391 -7.1250 0.0000 -0.0000 -11.8315 56.2586 -3.2993 -0.0000 -0.0000 0.0000 -81.8956 60.8174 -127.0880 -57.7366 55.6760 -32.4647 0.0000 -0.0000 -63.2749 -35.0528 2.6926 -1.8877 7.1250 -0.0000 -0.0000 -6.4437 -26.6798 -2.8814
0.1502 15.6438 -3.0105 1.8687 28.7794 15.9601 0.0000 0.0000 0.0000 -13.4796 -27.3978 -36.0290 1.8813 8.6144 24.5963 0.0624 -2.0766 5.9604 0.0187 -0.8828 -2.4263 0.0000 0.0000 0.0000 7.8693 11.2246 -35.7862 -4.7951 -13.1493 39.9299 0.5257 -20.9328 -25.3921 -0.1550 -2.5365 6.9909 10.6892 1.2916 28.4327 13.2804 6.3309 7.1091 6.3013 2.9827 -7.7004 -14.1930 -11.0561 1.0142 37.4107 -15.2458 -1.8364 14.2391 -7.6905 3.8906 0.0000 0.0000 0.0000 82.9408 -41.5928 -82.0764 45.0587 -50.7972 -22.2843 -0.0000 0.0000 -57.0593 18.6691 25.5658 8.2959 -7.1250 0.0000 -0.0000 -12.0899 56.3609 -3.4029 0.0000 0.0000 0.0000 -81.7238 60.8984 -127.3452 -57.4228 55.5831 -32.2057 0.0000 -0.0000 -63.1666 -35.2029 2.6596 -1.8750 7.1250 -0.0000 -0.0000 -6.5605 -26.7134 -2.9291
0.1886 15.6487 -3.0150 2.0302 27.9817 16.0043 0.0000 0.0000 0.0000 -13.8846 -26.9612 -35.9766 1.8873 8.6273 24.6363 0.0571 -2.0135 5.7230 0.0165 -0.8285 -2.2771 0.0000 0.0000 0.0000 7.4498 11.6620 -35.6569 -4.7575 -13.1053 39.7641 0.5277 -20.7941 -25.1406 -0.1554 -2.5397 6.9998 10.7723 1.2018 28.2439 13.3177 6.1906 7.1557 6.3535 2.9186 -7.5522 -14.2232 -10.8758 2.0753 37.5793 -14.7473 -2.8862 14.4574 -7.6369 3.2757 -0.0000 0.0000 0.0000 83.3085 -41.7652 -82.3710 44.4595 -50.5009 -21.8209 -0.0000 0.0000 -56.6839 18.4708 25.7226 8.2489 -7.1250 0.0000 -0.0000 -12.3758 56.4763 -3.5199 -0.0000 0.0000 0.0000 -82.4609 61.0685 -128.3898 -57.0708 55.4775 -31.9155 0.0000 -0.0000 -62.9185 -35.2019 2.6938 -1.8990 7.1250 -0.0000 -0.0000 -6.5565 -26.6720 -2.9337
0.2229 15.6521 -3.0175 2.1371 27.2245 15.9761 0.0000 0.0000 0.0000 -14.1604 -26.7008 -35.8149 1.8902 8.6336 24.6557 0.0542 -1.7587 5.4164 0.0148 -0.7851 -2.1576 0.0000 0.0000 0.0000 7.1220 12.0828 -35.4833 -4.7205 -13.0619 39.6008 0.5454 -20.7231 -24.8581 -0.1487 -2.4853 6.8489 10.8113 1.1351 28.1508 13.4094 6.0913 7.2142 6.4703 2.8733 -7.4497 -14.1396 -10.7245 3.0875 37.7677 -14.2291 -4.1230 14.6670 -7.5849 2.6088 0.0000 0.0000 0.0000 83.6627 -41.8635 -82.6249 43.9172 -50.2268 -21.4032 -0.0000 0.0000 -56.2559 18.0039 25.7717 8.0428 -7.1250 0.0000 -0.0000 -12.8871 56.4281 -3.6535 0.0000 0.0000 0.0000 -83.0475 61.2463 -129.2005 -56.8621 55.4141 -31.7436 0.0000 -0.0000 -62.6260 -35.3365 2.7493 -1.9478 7.1250 -0.0000 -0.0000 -6.6530 -26.5986 -2.9889
0.2558 15.6556 -3.0191 2.1952 26.5238 15.9063 0.0000 0.0000 0.0000 -14.3053 -26.6513 -35.5626 1.8916 8.6366 24.6651 0.0516 -1.3349 5.0006 0.0197 -0.9054 -2.4885 0.0000 0.0000 0.0000 6.8632 12.4479 -35.3128 -4.6902 -13.0262 39.4667 0.5640 -20.6540 -24.5671 -0.1378 -2.3925 6.5917 10.8579 1.0522 28.1018 13.5433 5.9941 7.2387 6.6260 2.8269 -7.4098 -14.1561 -10.5273 4.1258 37.9470 -13.6848 -5.2356 14.9106 -7.5100 1.9724 -0.0000 0.0000 0.0000 83.7796 -42.0008 -82.6115 43.6362 -50.0826 -21.1875 -0.0000 0.0000 -55.8560 17.3644 25.6679 7.7136 -7.1250 0.0000 -0.0000 -13.4962 56.1936 -3.7534 -0.0000 0.0000 0.0000 -83.3178 61.5164 -129.6988 -56.9085 55.4282 -31.7818 0.0000 -0.0000 -62.5188 -35.5504 2.8098 -2.0063 7.1250 -0.0000 -0.0000 -6.8088 -26.5153 -3.0732
0.2881 15.6609 -3.0203 2.2718 25.8551 15.8342 0.0000 0.0000 0.0000 -14.5336 -26.4593 -35.3276 1.8914 8.6362 24.6638 0.0469 -1.0438 4.6179 0.0257 -1.0355 -2.8464 0.0000 0.0000 0.0000 6.5962 12.7728 -35.1788 -4.6642 -12.9954 39.3512 0.6041 -20.6832 -24.2383 -0.1021 -2.0607 5.6735 10.9226 0.9596 28.0654 13.6699 5.8924 7.2556 6.7658 2.7775 -7.3797 -14.2704 -10.7885 2.0864 36.7285 -14.8285 -2.1163 14.0865 -7.6060 3.4037 -0.0000 -0.0000 0.0000 84.0195 -42.1140 -82.7521 43.2776 -49.8962 -20.9129 -0.0000 0.0000 -55.4646 16.8759 25.5436 7.4525 -7.1250 0.0000 -0.0000 -13.9350 55.9715 -3.8032 -0.0000 -0.0000 0.0000 -83.1293 61.7076 -129.7515 -57.0149 55.4606 -31.8695 0.0000 -0.0000 -62.6631 -35.6639 2.9117 -2.0877 7.1250 -0.0000 -0.0000 -6.8841 -26.3857 -3.1287
0.3211 15.6663 -3.0217 2.4945 25.0978 15.8429 0.0000 0.0000 0.0000 -14.9769 -26.1052 -35.1591 1.8902 8.6336 24.6558 0.0432 -0.8412 4.3313 0.0326 -1.1647 -3.2022 0.0000 0.0000 0.0000 6.1551 13.1681 -35.0766 -4.6415 -12.9684 39.2502 0.6580 -20.7473 -23.8302 -0.0652 -1.6470 4.5311 10.8553 0.9219 28.0008 13.7508 5.8115 7.2704 6.9177 2.7394 -7.3505 -14.4132 -10.8236 2.1223 36.6088 -14.9205 -2.0130 14.0520 -7.6458 3.4498 -0.0000 0.0000 0.0000 84.2469 -42.2420 -82.9582 43.0047 -49.7527 -20.7043 -0.0000 0.0000 -55.2230 16.4764 25.4986 7.2561 -7.1250 0.0000 -0.0000 -14.3216 55.8464 -3.8681 -0.0000 0.0000 0.0000 -82.7918 61.7245 -129.5972 -56.9309 55.4350 -31.8002 0.0000 -0.0000 -62.8546 -35.9076 3.1360 -2.2684 7.1250 -0.0000 -0.0000 -7.0447 -26.0998 -3.2502
0.3553 15.6700 -3.0216 2.6301 24.3294 15.8070 0.0000 0.0000 0.0000 -15.2881 -25.8242 -34.9836 1.8907 8.6346 24.6587 0.0402 -0.5222 4.0154 0.0281 -1.0826 -2.9761 0.0000 0.0000 0.0000 5.8190 13.5903 -34.9038 -4.6167 -12.9387 39.1395 0.6648 -20.6321 -23.5541 -0.0567 -1.5371 4.2281 10.9148 0.9036 27.9278 13.7905 5.7774 7.3102 6.9448 2.7222 -7.2697 -14.2955 -10.9438 2.2890 36.6357 -14.9560 -2.5593 14.0368 -7.7243 3.2716 0.0000 -0.0000 0.0000 84.6694 -42.3574 -83.3831 42.6969 -49.5890 -20.4697 -0.0000 0.0000 -54.9775 15.9661 25.4666 7.0133 -7.1250 0.0000 -0.0000 -14.8267 55.7128 -3.9603 0.0000 -0.0000 0.0000 -82.4126 61.6963 -129.4963 -56.8565 55.4124 -31.7390 0.0000 -0.0000 -62.8266 -36.2003 3.2654 -2.3873 7.1250 -0.0000 -0.0000 -7.2506 -25.9260 -3.3764
0.3898 15.6706 -3.0189 2.7744 23.5855 15.8230 0.0000 0.0000 0.0000 -15.6090 -25.5233 -34.8576 1.8899 8.6328 24.6533 0.0376 -0.2961 3.7833 0.0242 -1.0048 -2.7621 0.0000 0.0000 0.0000 5.4793 13.9399 -34.7920 -4.5857 -12.9014 39.0006 0.6823 -20.5744 -23.2716 -0.0425 -1.3304 3.6583 11.0062 0.8635 27.7889 13.7841 5.7006 7.3745 6.9212 2.6866 -7.1189 -13.9376 -10.8776 3.0947 36.9118 -14.4338 -4.2222 14.2105 -7.6853 2.5186 0.0000 -0.0000 0.0000 85.0855 -42.3922 -83.7080 42.4692 -49.4666 -20.2964 -0.0000 0.0000 -54.8721 15.5356 25.6987 6.8738 -7.1250 0.0000 -0.0000 -15.3904 55.8530 -4.1688 0.0000 -0.0000 0.0000 -82.1716 61.7068 -129.6432 -56.9279 55.4341 -31.7978 0.0000 -0.0000 -62.7790 -36.0966 2.9167 -2.1248 7.1250 -0.0000 -0.0000 -7.2097 -26.3590 -3.2835
0.4251 15.6715 -3.0152 2.9253 22.9031 15.8222 0.0000 0.0000 0.0000 -15.9759 -25.1960 -34.6952 1.8875 8.6277 24.6376 0.0347 -0.1385 3.5684 0.0222 -0.9618 -2.6438 0.0000 0.0000 0.0000 5.1515 14.1808 -34.6513 -4.5453 -12.8526 38.8193 0.6750 -20.4197 -23.0602 -0.0261 -1.0438 2.8692 11.0926 0.7642 27.6016 13.8283 5.5461 7.4357 6.9814 2.6163 -6.9537 -14.0984 -10.9342 2.6712 36.8018 -14.6411 -3.7636 14.1330 -7.7106 2.7847 0.0000 0.0000 0.0000 85.2878 -42.4779 -83.8557 42.4290 -49.4449 -20.2659 -0.0000 0.0000 -54.8510 15.4833 25.9496 6.9114 -7.1250 0.0000 -0.0000 -15.5811 56.0865 -4.3113 0.0000 0.0000 0.0000 -82.1673 61.7412 -129.9237 -56.9975 55.4553 -31.8551 0.0000 -0.0000 -62.7416 -36.3041 2.8014 -2.0565 7.1250 -0.0000 -0.0000 -7.3783 -26.4906 -3.3385
0.4593 15.6792 -3.0100 3.0936 22.1829 15.7933 0.0000 0.0000 0.0000 -16.3810 -24.8364 -34.4679 1.8819 8.6156 24.6001 0.0299 0.0413 3.2496 0.0260 -1.0406 -2.8605 0.0000 0.0000 0.0000 4.7965 14.5112 -34.4306 -4.4995 -12.7970 38.6133 0.6508 -20.2069 -22.9179 -0.0173 -0.8483 2.3314 11.1108 0.7085 27.5421 13.8796 5.4695 7.4092 7.0541 2.5766 -6.9564 -14.2944 -10.9223 2.9685 36.8330 -14.6405 -3.8247 14.2082 -7.7419 2.7324 -0.0000 -0.0000 0.0000 85.5239 -42.6418 -83.9450 42.4545 -49.4587 -20.2853 -0.0000 0.0000 -55.0124 15.6435 25.4622 6.8646 -7.1250 0.0000 -0.0000 -15.1533 55.6441 -4.0250 -0.0000 -0.0000 0.0000 -81.7874 61.9551 -129.7251 -57.2712 55.5378 -32.0806 0.0000 -0.0000 -62.6162 -37.0864 3.2115 -2.4249 7.1250 -0.0000 -0.0000 -7.9205 -25.9446 -3.6903
